<svg width="11" height="20" viewBox="0 0 11 20" fill="none" xmlns="http://www.w3.org/2000/svg">
<path d="M8.81502 10L1.28227 17.5328C1.08361 17.7314 0.986773 17.9653 0.991773 18.2345C0.99694 18.5038 1.09886 18.7378 1.29752 18.9365C1.49636 19.1352 1.73036 19.2345 1.99952 19.2345C2.26869 19.2345 2.50269 19.1352 2.70152 18.9365L10.3725 11.2808C10.5534 11.0999 10.6874 10.8973 10.7745 10.673C10.8617 10.4487 10.9053 10.2243 10.9053 10C10.9053 9.77568 10.8617 9.55135 10.7745 9.32701C10.6874 9.10268 10.5534 8.9001 10.3725 8.71926L2.70152 1.04801C2.50269 0.849348 2.26611 0.752598 1.99177 0.757765C1.71744 0.762931 1.48094 0.864848 1.28227 1.06351C1.08361 1.26218 0.984273 1.49618 0.984273 1.76551C0.984273 2.03468 1.08361 2.2686 1.28227 2.46727L8.81502 10Z" fill="#231E60"/>
</svg>
