<svg width="11" height="20" viewBox="0 0 11 20" fill="none" xmlns="http://www.w3.org/2000/svg">
<path d="M2.18498 10L9.71773 17.5328C9.91639 17.7314 10.0132 17.9653 10.0082 18.2345C10.0031 18.5038 9.90114 18.7378 9.70248 18.9365C9.50364 19.1352 9.26964 19.2345 9.00048 19.2345C8.73131 19.2345 8.49731 19.1352 8.29848 18.9365L0.627477 11.2808C0.446643 11.0999 0.312644 10.8973 0.225477 10.673C0.13831 10.4487 0.0947266 10.2243 0.0947266 10C0.0947266 9.77568 0.13831 9.55135 0.225477 9.32701C0.312644 9.10268 0.446643 8.9001 0.627477 8.71926L8.29848 1.04801C8.49731 0.849348 8.73389 0.752598 9.00823 0.757765C9.28256 0.762931 9.51906 0.864848 9.71773 1.06351C9.91639 1.26218 10.0157 1.49618 10.0157 1.76551C10.0157 2.03468 9.91639 2.2686 9.71773 2.46727L2.18498 10Z" fill="#231E60"/>
</svg>
