<svg width="34" height="23" viewBox="0 0 34 23" fill="none" xmlns="http://www.w3.org/2000/svg">
<path d="M1.5 22.7692C1.075 22.7692 0.71875 22.6254 0.43125 22.3378C0.14375 22.0501 0 21.6938 0 21.2686C0 20.8434 0.14375 20.4872 0.43125 20.2C0.71875 19.9129 1.075 19.7693 1.5 19.7693H32.4999C32.9249 19.7693 33.2812 19.9131 33.5687 20.2007C33.8562 20.4883 33.9999 20.8447 33.9999 21.2699C33.9999 21.6951 33.8562 22.0513 33.5687 22.3384C33.2812 22.6256 32.9249 22.7692 32.4999 22.7692H1.5ZM1.5 13C1.075 13 0.71875 12.8562 0.43125 12.5686C0.14375 12.281 0 11.9246 0 11.4994C0 11.0742 0.14375 10.718 0.43125 10.4308C0.71875 10.1437 1.075 10.0001 1.5 10.0001H32.4999C32.9249 10.0001 33.2812 10.1439 33.5687 10.4315C33.8562 10.7191 33.9999 11.0755 33.9999 11.5007C33.9999 11.9259 33.8562 12.2821 33.5687 12.5692C33.2812 12.8564 32.9249 13 32.4999 13H1.5ZM1.5 3.23078C1.075 3.23078 0.71875 3.08697 0.43125 2.79933C0.14375 2.51173 0 2.15533 0 1.73013C0 1.30497 0.14375 0.9488 0.43125 0.661633C0.71875 0.374433 1.075 0.230835 1.5 0.230835H32.4999C32.9249 0.230835 33.2812 0.37465 33.5687 0.662283C33.8562 0.949917 33.9999 1.30632 33.9999 1.73149C33.9999 2.15668 33.8562 2.51287 33.5687 2.80003C33.2812 3.0872 32.9249 3.23078 32.4999 3.23078H1.5Z" fill="#231E60"/>
</svg>
