<svg width="26" height="27" viewBox="0 0 26 27" fill="none" xmlns="http://www.w3.org/2000/svg">
<path d="M13 15.6075L2.85402 25.754C2.57702 26.0307 2.22886 26.1724 1.80952 26.179C1.39052 26.1854 1.03602 26.0437 0.746024 25.754C0.456357 25.464 0.311523 25.1127 0.311523 24.7C0.311523 24.2874 0.456357 23.936 0.746024 23.646L10.8925 13.5L0.746024 3.35403C0.469357 3.07703 0.32769 2.72886 0.321024 2.30952C0.31469 1.89052 0.456357 1.53602 0.746024 1.24602C1.03602 0.956357 1.38736 0.811523 1.80002 0.811523C2.21269 0.811523 2.56402 0.956357 2.85402 1.24602L13 11.3925L23.146 1.24602C23.423 0.969357 23.7712 0.82769 24.1905 0.821024C24.6095 0.81469 24.964 0.956357 25.254 1.24602C25.5437 1.53602 25.6885 1.88736 25.6885 2.30002C25.6885 2.71269 25.5437 3.06403 25.254 3.35403L15.1075 13.5L25.254 23.646C25.5307 23.923 25.6724 24.2712 25.679 24.6905C25.6854 25.1095 25.5437 25.464 25.254 25.754C24.964 26.0437 24.6127 26.1885 24.2 26.1885C23.7874 26.1885 23.436 26.0437 23.146 25.754L13 15.6075Z" fill="#231E60"/>
</svg>
