<svg width="22" height="20" viewBox="0 0 22 20" fill="none" xmlns="http://www.w3.org/2000/svg">
<path d="M1 3.13574C1 2.60531 1.21071 2.0966 1.58579 1.72153C1.96086 1.34646 2.46957 1.13574 3 1.13574H9V19.1357H3C2.46957 19.1357 1.96086 18.925 1.58579 18.55C1.21071 18.1749 1 17.6662 1 17.1357V3.13574ZM13 1.13574H19C19.5304 1.13574 20.0391 1.34646 20.4142 1.72153C20.7893 2.0966 21 2.60531 21 3.13574V8.13574H13V1.13574ZM13 12.1357H21V17.1357C21 17.6662 20.7893 18.1749 20.4142 18.55C20.0391 18.925 19.5304 19.1357 19 19.1357H13V12.1357Z" stroke="#231E60" stroke-width="1.5" stroke-linecap="round" stroke-linejoin="round"/>
</svg>
