<svg width="24" height="25" viewBox="0 0 24 25" fill="none" xmlns="http://www.w3.org/2000/svg">
<g clip-path="url(#clip0_2123_4983)">
<path d="M24 12.936C24 6.30861 18.6274 0.936035 12 0.936035C5.37258 0.936035 0 6.30861 0 12.936C0 18.9255 4.3882 23.89 10.125 24.7903V16.4048H7.07812V12.936H10.125V10.2923C10.125 7.28479 11.9166 5.62354 14.6576 5.62354C15.9701 5.62354 17.3438 5.85791 17.3438 5.85791V8.81104H15.8306C14.34 8.81104 13.875 9.73611 13.875 10.686V12.936H17.2031L16.6711 16.4048H13.875V24.7903C19.6118 23.89 24 18.9255 24 12.936Z" fill="#231E60"/>
</g>
<defs>
<clipPath id="clip0_2123_4983">
<rect width="24" height="24" fill="white" transform="translate(0 0.936035)"/>
</clipPath>
</defs>
</svg>
