<svg width="24" height="25" viewBox="0 0 24 25" fill="none" xmlns="http://www.w3.org/2000/svg">
<g clip-path="url(#clip0_2123_4978)">
<path d="M12 3.09697C15.2063 3.09697 15.5859 3.11103 16.8469 3.16728C18.0188 3.21885 18.6516 3.41572 19.0734 3.57979C19.6313 3.79541 20.0344 4.05791 20.4516 4.4751C20.8734 4.89697 21.1313 5.29541 21.3469 5.85322C21.5109 6.2751 21.7078 6.9126 21.7594 8.07978C21.8156 9.34541 21.8297 9.7251 21.8297 12.9267C21.8297 16.1329 21.8156 16.5126 21.7594 17.7735C21.7078 18.9454 21.5109 19.5782 21.3469 20.0001C21.1313 20.5579 20.8687 20.961 20.4516 21.3782C20.0297 21.8001 19.6313 22.0579 19.0734 22.2735C18.6516 22.4376 18.0141 22.6345 16.8469 22.686C15.5813 22.7423 15.2016 22.7563 12 22.7563C8.79375 22.7563 8.41406 22.7423 7.15313 22.686C5.98125 22.6345 5.34844 22.4376 4.92656 22.2735C4.36875 22.0579 3.96563 21.7954 3.54844 21.3782C3.12656 20.9563 2.86875 20.5579 2.65313 20.0001C2.48906 19.5782 2.29219 18.9407 2.24063 17.7735C2.18438 16.5079 2.17031 16.1282 2.17031 12.9267C2.17031 9.72041 2.18438 9.34072 2.24063 8.07978C2.29219 6.90791 2.48906 6.2751 2.65313 5.85322C2.86875 5.29541 3.13125 4.89229 3.54844 4.4751C3.97031 4.05322 4.36875 3.79541 4.92656 3.57979C5.34844 3.41572 5.98594 3.21885 7.15313 3.16728C8.41406 3.11103 8.79375 3.09697 12 3.09697ZM12 0.936035C8.74219 0.936035 8.33438 0.950098 7.05469 1.00635C5.77969 1.0626 4.90313 1.26885 4.14375 1.56416C3.35156 1.87354 2.68125 2.28135 2.01563 2.95166C1.34531 3.61729 0.9375 4.2876 0.628125 5.0751C0.332812 5.83916 0.126563 6.71103 0.0703125 7.98603C0.0140625 9.27041 0 9.67822 0 12.936C0 16.1938 0.0140625 16.6017 0.0703125 17.8813C0.126563 19.1563 0.332812 20.0329 0.628125 20.7923C0.9375 21.5845 1.34531 22.2548 2.01563 22.9204C2.68125 23.586 3.35156 23.9985 4.13906 24.3032C4.90313 24.5985 5.775 24.8048 7.05 24.861C8.32969 24.9173 8.7375 24.9313 11.9953 24.9313C15.2531 24.9313 15.6609 24.9173 16.9406 24.861C18.2156 24.8048 19.0922 24.5985 19.8516 24.3032C20.6391 23.9985 21.3094 23.586 21.975 22.9204C22.6406 22.2548 23.0531 21.5845 23.3578 20.797C23.6531 20.0329 23.8594 19.161 23.9156 17.886C23.9719 16.6063 23.9859 16.1985 23.9859 12.9407C23.9859 9.68291 23.9719 9.2751 23.9156 7.99541C23.8594 6.72041 23.6531 5.84385 23.3578 5.08447C23.0625 4.2876 22.6547 3.61729 21.9844 2.95166C21.3188 2.28604 20.6484 1.87354 19.8609 1.56885C19.0969 1.27354 18.225 1.06729 16.95 1.01104C15.6656 0.950098 15.2578 0.936035 12 0.936035Z" fill="#231E60"/>
<path d="M12 6.77197C8.59688 6.77197 5.83594 9.53291 5.83594 12.936C5.83594 16.3392 8.59688 19.1001 12 19.1001C15.4031 19.1001 18.1641 16.3392 18.1641 12.936C18.1641 9.53291 15.4031 6.77197 12 6.77197ZM12 16.9345C9.79219 16.9345 8.00156 15.1438 8.00156 12.936C8.00156 10.7282 9.79219 8.9376 12 8.9376C14.2078 8.9376 15.9984 10.7282 15.9984 12.936C15.9984 15.1438 14.2078 16.9345 12 16.9345Z" fill="#231E60"/>
<path d="M19.8469 6.52818C19.8469 7.32505 19.2 7.96724 18.4078 7.96724C17.6109 7.96724 16.9688 7.32036 16.9688 6.52818C16.9688 5.7313 17.6156 5.08911 18.4078 5.08911C19.2 5.08911 19.8469 5.73599 19.8469 6.52818Z" fill="#231E60"/>
</g>
<defs>
<clipPath id="clip0_2123_4978">
<rect width="24" height="24" fill="white" transform="translate(0 0.936035)"/>
</clipPath>
</defs>
</svg>
