<svg width="28" height="26" viewBox="0 0 28 26" fill="none" xmlns="http://www.w3.org/2000/svg">
<path d="M8.1875 6.63838L12.0991 1.43187C12.3376 1.11112 12.6208 0.875625 12.9485 0.725375C13.2765 0.575125 13.627 0.5 14 0.5C14.373 0.5 14.7235 0.575125 15.0515 0.725375C15.3793 0.875625 15.6624 1.11112 15.9009 1.43187L19.8125 6.63838L25.8414 8.68925C26.3759 8.87025 26.7874 9.17325 27.0759 9.59825C27.3644 10.0235 27.5086 10.4933 27.5086 11.0075C27.5086 11.2448 27.4739 11.4804 27.4044 11.7144C27.3349 11.9486 27.2206 12.173 27.0616 12.3875L23.1095 17.747L23.2595 23.4931C23.2845 24.1979 23.0514 24.7919 22.5601 25.2751C22.0689 25.7584 21.4973 26 20.8453 26C20.853 26 20.626 25.9721 20.1643 25.9164L14 24.0991L7.83575 25.9164C7.71075 25.9664 7.59013 25.9928 7.47388 25.9955C7.35788 25.9985 7.2515 26 7.15475 26C6.4895 26 5.9145 25.7584 5.42975 25.2751C4.94525 24.7919 4.7155 24.1979 4.7405 23.4931L4.8905 17.7095L0.947 12.3875C0.788 12.171 0.67375 11.9446 0.60425 11.7084C0.53475 11.4724 0.5 11.2362 0.5 11C0.5 10.4937 0.64825 10.0229 0.94475 9.58738C1.2415 9.15188 1.65575 8.843 2.1875 8.66075L8.1875 6.63838ZM9.13063 7.928L2.69225 10.097C2.40375 10.1932 2.20663 10.3904 2.10088 10.6884C1.99513 10.9866 2.03837 11.2607 2.23062 11.5107L6.41938 17.2711L6.2405 23.5107C6.22125 23.8375 6.33663 24.097 6.58663 24.2892C6.83663 24.4818 7.1155 24.5299 7.42325 24.4336L14 22.5444L20.5768 24.4711C20.8845 24.5674 21.1634 24.5193 21.4134 24.3268C21.6634 24.1345 21.7788 23.875 21.7595 23.5483L21.5806 17.2711L25.7694 11.5858C25.9616 11.3357 26.0049 11.0616 25.8991 10.7634C25.7934 10.4654 25.5963 10.2682 25.3078 10.172L18.8694 7.928L14.7211 2.40388C14.5481 2.15388 14.3078 2.02888 14 2.02888C13.6923 2.02888 13.4519 2.15388 13.2789 2.40388L9.13063 7.928Z" fill="#231E60"/>
</svg>
