<svg width="24" height="25" viewBox="0 0 24 25" fill="none" xmlns="http://www.w3.org/2000/svg">
<g clip-path="url(#clip0_2123_4975)">
<path d="M22.2234 0.936035H1.77187C0.792187 0.936035 0 1.70947 0 2.66572V23.2017C0 24.1579 0.792187 24.936 1.77187 24.936H22.2234C23.2031 24.936 24 24.1579 24 23.2063V2.66572C24 1.70947 23.2031 0.936035 22.2234 0.936035ZM7.12031 21.3876H3.55781V9.93135H7.12031V21.3876ZM5.33906 8.37041C4.19531 8.37041 3.27188 7.44697 3.27188 6.30791C3.27188 5.16885 4.19531 4.24541 5.33906 4.24541C6.47813 4.24541 7.40156 5.16885 7.40156 6.30791C7.40156 7.44229 6.47813 8.37041 5.33906 8.37041ZM20.4516 21.3876H16.8937V15.8188C16.8937 14.4923 16.8703 12.7813 15.0422 12.7813C13.1906 12.7813 12.9094 14.2298 12.9094 15.7251V21.3876H9.35625V9.93135H12.7687V11.497H12.8156C13.2891 10.597 14.4516 9.64541 16.1813 9.64541C19.7859 9.64541 20.4516 12.0173 20.4516 15.1017V21.3876Z" fill="#231E60"/>
</g>
<defs>
<clipPath id="clip0_2123_4975">
<rect width="24" height="24" fill="white" transform="translate(0 0.936035)"/>
</clipPath>
</defs>
</svg>
