<svg width="20" height="21" viewBox="0 0 20 21" fill="none" xmlns="http://www.w3.org/2000/svg">
<path d="M1.43264 10.7783C1.37444 10.7202 1.32826 10.6512 1.29675 10.5753C1.26524 10.4994 1.24902 10.418 1.24902 10.3358C1.24902 10.2535 1.26524 10.1721 1.29675 10.0962C1.32826 10.0203 1.37444 9.95131 1.43264 9.89325L3.93264 7.39325C3.99075 7.33514 4.05974 7.28905 4.13566 7.2576C4.21159 7.22615 4.29296 7.20996 4.37514 7.20996C4.45732 7.20996 4.5387 7.22615 4.61462 7.2576C4.69054 7.28905 4.75953 7.33514 4.81764 7.39325C4.87575 7.45136 4.92185 7.52035 4.95329 7.59627C4.98474 7.6722 5.00093 7.75357 5.00093 7.83575C5.00093 7.91793 4.98474 7.99931 4.95329 8.07523C4.92185 8.15115 4.87575 8.22014 4.81764 8.27825L3.38389 9.71075H16.6164L15.1826 8.27825C15.0653 8.16089 14.9994 8.00172 14.9994 7.83575C14.9994 7.66978 15.0653 7.51061 15.1826 7.39325C15.3 7.27589 15.4592 7.20996 15.6251 7.20996C15.7911 7.20996 15.9503 7.27589 16.0676 7.39325L18.5676 9.89325C18.6258 9.95131 18.672 10.0203 18.7035 10.0962C18.735 10.1721 18.7513 10.2535 18.7513 10.3358C18.7513 10.418 18.735 10.4994 18.7035 10.5753C18.672 10.6512 18.6258 10.7202 18.5676 10.7783L16.0676 13.2783C15.9503 13.3956 15.7911 13.4615 15.6251 13.4615C15.4592 13.4615 15.3 13.3956 15.1826 13.2783C15.0653 13.1609 14.9994 13.0017 14.9994 12.8358C14.9994 12.6698 15.0653 12.5106 15.1826 12.3933L16.6164 10.9608H3.38389L4.81764 12.3933C4.935 12.5106 5.00093 12.6698 5.00093 12.8358C5.00093 13.0017 4.935 13.1609 4.81764 13.2783C4.70028 13.3956 4.54111 13.4615 4.37514 13.4615C4.20917 13.4615 4.05 13.3956 3.93264 13.2783L1.43264 10.7783Z" fill="#222256"/>
</svg>
