<svg width="20" height="21" viewBox="0 0 20 21" fill="none" xmlns="http://www.w3.org/2000/svg">
<g clip-path="url(#clip0_2688_7)">
<path fill-rule="evenodd" clip-rule="evenodd" d="M3.33301 4.50244C3.33301 3.8394 3.5964 3.20352 4.06524 2.73467C4.53408 2.26583 5.16997 2.00244 5.83301 2.00244L14.1663 2.00244C14.8294 2.00244 15.4653 2.26583 15.9341 2.73467C16.4029 3.20352 16.6663 3.8394 16.6663 4.50244V17.8358C16.6662 17.9927 16.6218 18.1465 16.5382 18.2793C16.4546 18.4121 16.3351 18.5186 16.1936 18.5865C16.0521 18.6544 15.8943 18.681 15.7384 18.6632C15.5824 18.6454 15.4347 18.5839 15.3122 18.4858L13.7497 17.2358L12.1872 18.4858C12.0271 18.614 11.8254 18.6787 11.6205 18.6675C11.4157 18.6563 11.2223 18.5699 11.0772 18.4249L9.99967 17.3474L8.92217 18.4249C8.77718 18.57 8.58376 18.6565 8.37896 18.6679C8.17416 18.6793 7.97235 18.6147 7.81217 18.4866L6.24967 17.2358L4.68717 18.4858C4.56465 18.5839 4.41691 18.6454 4.26097 18.6632C4.10503 18.681 3.94723 18.6544 3.80573 18.5865C3.66423 18.5186 3.54479 18.4121 3.46116 18.2793C3.37753 18.1465 3.33311 17.9927 3.33301 17.8358L3.33301 4.50244ZM5.83301 3.66911C5.61199 3.66911 5.40003 3.75691 5.24375 3.91319C5.08747 4.06947 4.99967 4.28143 4.99967 4.50244L4.99967 16.1024L5.72884 15.5191C5.87664 15.4008 6.06034 15.3363 6.24967 15.3363C6.43901 15.3363 6.62271 15.4008 6.77051 15.5191L8.27051 16.7191L9.41051 15.5799C9.56678 15.4237 9.7787 15.336 9.99967 15.336C10.2206 15.336 10.4326 15.4237 10.5888 15.5799L11.728 16.7191L13.2288 15.5191C13.3766 15.4008 13.5603 15.3363 13.7497 15.3363C13.939 15.3363 14.1227 15.4008 14.2705 15.5191L14.9997 16.1024V4.50244C14.9997 4.28143 14.9119 4.06947 14.7556 3.91319C14.5993 3.75691 14.3874 3.66911 14.1663 3.66911L5.83301 3.66911ZM6.66634 7.83577C6.66634 7.61476 6.75414 7.4028 6.91042 7.24652C7.0667 7.09024 7.27866 7.00244 7.49967 7.00244L12.4997 7.00244C12.7207 7.00244 12.9326 7.09024 13.0889 7.24652C13.2452 7.4028 13.333 7.61476 13.333 7.83577C13.333 8.05679 13.2452 8.26875 13.0889 8.42503C12.9326 8.58131 12.7207 8.66911 12.4997 8.66911H7.49967C7.27866 8.66911 7.0667 8.58131 6.91042 8.42503C6.75414 8.26875 6.66634 8.05679 6.66634 7.83577ZM7.49967 10.3358C7.27866 10.3358 7.0667 10.4236 6.91042 10.5799C6.75414 10.7361 6.66634 10.9481 6.66634 11.1691C6.66634 11.3901 6.75414 11.6021 6.91042 11.7584C7.0667 11.9146 7.27866 12.0024 7.49967 12.0024H9.99967C10.2207 12.0024 10.4326 11.9146 10.5889 11.7584C10.7452 11.6021 10.833 11.3901 10.833 11.1691C10.833 10.9481 10.7452 10.7361 10.5889 10.5799C10.4326 10.4236 10.2207 10.3358 9.99967 10.3358H7.49967Z" fill="#222256"/>
</g>
<defs>
<clipPath id="clip0_2688_7">
<rect width="20" height="20" fill="white" transform="translate(0 0.335938)"/>
</clipPath>
</defs>
</svg>
