<svg width="25" height="24" viewBox="0 0 25 24" fill="none" xmlns="http://www.w3.org/2000/svg">
<path d="M18.1709 16.6015L22.4396 20.8692L21.0294 22.2795L16.7616 18.0108C15.1737 19.2837 13.1986 19.9761 11.1634 19.9732C6.21192 19.9732 2.19336 15.9546 2.19336 11.0032C2.19336 6.05176 6.21192 2.0332 11.1634 2.0332C16.1148 2.0332 20.1334 6.05176 20.1334 11.0032C20.1363 13.0384 19.4439 15.0135 18.1709 16.6015ZM16.1716 15.862C17.4362 14.561 18.1426 12.8175 18.14 11.0032C18.14 7.14909 15.0175 4.02654 11.1634 4.02654C7.30925 4.02654 4.18669 7.14909 4.18669 11.0032C4.18669 14.8573 7.30925 17.9799 11.1634 17.9799C12.9777 17.9824 14.7212 17.2761 16.0221 16.0115L16.1716 15.862Z" fill="#4F4B80"/>
</svg>
