<svg width="24" height="25" viewBox="0 0 24 25" fill="none" xmlns="http://www.w3.org/2000/svg">
<path d="M12 14.3359C13.1046 14.3359 14 13.4405 14 12.3359C14 11.2314 13.1046 10.3359 12 10.3359C10.8954 10.3359 10 11.2314 10 12.3359C10 13.4405 10.8954 14.3359 12 14.3359Z" stroke="#222256" stroke-width="1.5"/>
<path d="M5.39927 6.21583L5.89927 5.34883C5.70297 5.23534 5.47392 5.19193 5.2497 5.22572C5.02548 5.25952 4.8194 5.36852 4.66527 5.53483L5.39927 6.21583ZM3.40027 9.67983L2.44427 9.38483C2.37773 9.60125 2.3866 9.83385 2.46944 10.0446C2.55227 10.2553 2.70417 10.4317 2.90027 10.5448L3.40027 9.67983ZM3.39827 14.9908L2.89827 14.1248C2.70193 14.2382 2.54995 14.415 2.46728 14.6262C2.3846 14.8373 2.37614 15.0703 2.44327 15.2868L3.39827 14.9908ZM5.39827 18.4548L4.66427 19.1348C4.8184 19.3011 5.02448 19.4101 5.2487 19.4439C5.47292 19.4777 5.70197 19.4343 5.89827 19.3208L5.39827 18.4548ZM9.99827 21.1098H9.00027C9.00028 21.3365 9.07727 21.5564 9.21862 21.7335C9.35997 21.9106 9.5573 22.0345 9.77827 22.0848L9.99827 21.1098ZM13.9993 21.1118L14.2223 22.0868C14.4431 22.0363 14.6402 21.9124 14.7813 21.7352C14.9225 21.5581 14.9993 21.3383 14.9993 21.1118H13.9993ZM18.6003 18.4558L18.1003 19.3218C18.2965 19.4351 18.5253 19.4783 18.7493 19.4445C18.9733 19.4108 19.1792 19.3019 19.3333 19.1358L18.6003 18.4558ZM20.5983 14.9898L21.5543 15.2848C21.6208 15.0684 21.6119 14.8358 21.5291 14.6251C21.4463 14.4144 21.2944 14.238 21.0983 14.1248L20.5983 14.9898ZM20.6003 9.67883L21.1003 10.5448C21.2966 10.4314 21.4486 10.2547 21.5313 10.0435C21.6139 9.83238 21.6224 9.59941 21.5553 9.38283L20.6003 9.67883ZM18.6003 6.21383L19.3343 5.53483C19.1803 5.36836 18.9743 5.25917 18.75 5.22519C18.5258 5.19121 18.2967 5.23446 18.1003 5.34783L18.6003 6.21383ZM14.0003 3.56083H15.0003C15.0003 3.33434 14.9235 3.11455 14.7823 2.93743C14.6412 2.7603 14.4441 2.63634 14.2233 2.58583L14.0003 3.56083ZM10.0003 3.55883L9.77727 2.58383C9.55649 2.63434 9.35938 2.7583 9.21823 2.93543C9.07708 3.11255 9.00023 3.33234 9.00027 3.55883H10.0003ZM4.35627 9.97483C4.70944 8.82781 5.31646 7.77509 6.13227 6.89483L4.66527 5.53483C3.64558 6.6352 2.88681 7.95209 2.44527 9.38583L4.35627 9.97483ZM5.07227 16.3358C4.77256 15.8176 4.53173 15.2676 4.35427 14.6958L2.44427 15.2878C2.66127 15.9888 2.95927 16.6758 3.34027 17.3358L5.07227 16.3358ZM6.13227 17.7768C5.72671 17.3374 5.37051 16.8541 5.07227 16.3358L3.34027 17.3358C3.72027 17.9958 4.16727 18.5968 4.66527 19.1358L6.13227 17.7768ZM13.7783 20.1378C12.6078 20.4043 11.3924 20.4036 10.2223 20.1358L9.77727 22.0858C11.2403 22.4205 12.7599 22.4211 14.2233 22.0878L13.7783 20.1378ZM19.6443 14.6968C19.2911 15.8439 18.6841 16.8966 17.8683 17.7768L19.3353 19.1368C20.355 18.0365 21.1137 16.7206 21.5553 15.2868L19.6443 14.6968ZM18.9283 8.33583C19.2343 8.86583 19.4733 9.41583 19.6463 9.97583L21.5563 9.38383C21.3353 8.66974 21.0348 7.98275 20.6603 7.33583L18.9283 8.33583ZM17.8683 6.89483C18.2653 7.32483 18.6223 7.80483 18.9283 8.33583L20.6603 7.33583C20.2871 6.68833 19.8426 6.08458 19.3353 5.53583L17.8683 6.89483ZM10.2223 4.53383C11.3927 4.26737 12.6081 4.26806 13.7783 4.53583L14.2233 2.58583C12.7606 2.25136 11.2403 2.25068 9.77727 2.58383L10.2223 4.53383ZM11.0003 5.40783V3.55783H9.00027V5.40783H11.0003ZM7.50027 6.27383L5.89927 5.34883L4.89927 7.08083L6.50027 8.00583L7.50027 6.27383ZM4.50027 13.2018L2.89927 14.1258L3.89927 15.8578L5.50027 14.9338L4.50027 13.2018ZM5.50027 9.73783L3.90027 8.81483L2.90027 10.5468L4.50027 11.4698L5.50027 9.73783ZM11.0003 21.1108V19.2638H9.00027V21.1098L11.0003 21.1108ZM6.50027 16.6658L4.89927 17.5908L5.89927 19.3228L7.49927 18.3978L6.50027 16.6658ZM19.1013 17.5908L17.5003 16.6658L16.5003 18.3978L18.1013 19.3228L19.1013 17.5908ZM15.0003 21.1128V19.2638H13.0003V21.1138L15.0003 21.1128ZM20.1013 8.81283L18.5003 9.73783L19.5003 11.4698L21.1003 10.5448L20.1013 8.81283ZM21.0993 14.1248L19.5003 13.2018L18.5003 14.9338L20.1003 15.8568L21.0993 14.1248ZM15.0003 5.40783V3.56083H13.0003V5.40783H15.0003ZM18.1013 5.34883L16.5003 6.27383L17.5003 8.00583L19.1013 7.08083L18.1013 5.34883ZM13.0003 5.40783C13.0003 7.71783 15.5003 9.16083 17.5003 8.00583L16.5003 6.27383C16.3483 6.3616 16.1758 6.40781 16.0003 6.40781C15.8247 6.40781 15.6523 6.3616 15.5003 6.27384C15.3483 6.18607 15.222 6.05984 15.1343 5.90782C15.0465 5.75581 15.0003 5.58337 15.0003 5.40783H13.0003ZM18.5003 9.73783C16.5003 10.8928 16.5003 13.7788 18.5003 14.9338L19.5003 13.2018C19.3483 13.1141 19.222 12.9878 19.1343 12.8358C19.0465 12.6838 19.0003 12.5114 19.0003 12.3358C19.0003 12.1603 19.0465 11.9879 19.1343 11.8359C19.222 11.6838 19.3483 11.5576 19.5003 11.4698L18.5003 9.73783ZM17.5003 16.6658C15.5003 15.5118 13.0003 16.9548 13.0003 19.2638H15.0003C15.0003 19.0883 15.0465 18.9159 15.1343 18.7638C15.222 18.6118 15.3483 18.4856 15.5003 18.3978C15.6523 18.3101 15.8247 18.2639 16.0003 18.2639C16.1758 18.2639 16.3483 18.3101 16.5003 18.3978L17.5003 16.6658ZM11.0003 19.2638C11.0003 16.9538 8.50027 15.5108 6.50027 16.6658L7.49927 18.3978C7.65129 18.3101 7.82473 18.2639 8.00027 18.2639C8.1758 18.2639 8.34824 18.3101 8.50026 18.3978C8.65228 18.4856 8.77852 18.6118 8.86629 18.7638C8.95406 18.9159 9.00027 19.0883 9.00027 19.2638H11.0003ZM5.50027 14.9338C7.50027 13.7788 7.50027 10.8928 5.50027 9.73783L4.50027 11.4698C4.65228 11.5576 4.77851 11.6838 4.86627 11.8359C4.95403 11.9879 5.00023 12.1603 5.00023 12.3358C5.00023 12.5114 4.95403 12.6838 4.86627 12.8358C4.77851 12.9878 4.65228 13.1141 4.50027 13.2018L5.50027 14.9338ZM9.00027 5.40783C9.00027 5.58337 8.95406 5.75581 8.86629 5.90782C8.77852 6.05984 8.65228 6.18607 8.50026 6.27384C8.34824 6.3616 8.1758 6.40781 8.00027 6.40781C7.82473 6.40781 7.65229 6.3616 7.50027 6.27383L6.50027 8.00583C8.50027 9.15983 11.0003 7.71683 11.0003 5.40783H9.00027Z" fill="#222256"/>
</svg>
